<?xml version="1.0" encoding="UTF-8"?>
<!DOCTYPE svg
PUBLIC "-//W3C//DTD SVG 1.1//EN"
       "http://www.w3.org/Graphics/SVG/1.1/DTD/svg11.dtd">
<svg viewBox="25 -5 690 565" width="665px" height="570px" xmlns="http://www.w3.org/2000/svg" version="1.1">
   <line x1="423" y1="160" x2="433" y2="160" style="stroke:#333;stroke-width:1;"/>
   <line x1="570" y1="60" x2="580" y2="60" style="stroke:#333;stroke-width:1;"/>
   <line x1="433" y1="160" x2="570" y2="60" style="stroke:#333;stroke-width:1;"/>
   <line x1="430.5" y1="160" x2="426.96446609407" y2="163.53553390593" style="stroke:#333;stroke-width:2;"/>
   <line x1="430.5" y1="160" x2="426.96446609407" y2="156.46446609407" style="stroke:#333;stroke-width:2;"/>
   <line x1="575" y1="60" x2="571.46446609407" y2="63.535533905933" style="stroke:#333;stroke-width:2;"/>
   <line x1="575" y1="60" x2="571.46446609407" y2="56.464466094067" style="stroke:#333;stroke-width:2;"/>
   <line x1="127" y1="60" x2="137" y2="60" style="stroke:#cb0;stroke-width:1;"/>
   <line x1="240" y1="140" x2="250" y2="140" style="stroke:#cb0;stroke-width:1;"/>
   <line x1="137" y1="60" x2="240" y2="140" style="stroke:#cb0;stroke-width:1;"/>
   <line x1="134.5" y1="60" x2="130.96446609407" y2="63.535533905933" style="stroke:#cb0;stroke-width:2;"/>
   <line x1="134.5" y1="60" x2="130.96446609407" y2="56.464466094067" style="stroke:#cb0;stroke-width:2;"/>
   <line x1="245" y1="140" x2="241.46446609407" y2="143.53553390593" style="stroke:#cb0;stroke-width:2;"/>
   <line x1="245" y1="140" x2="241.46446609407" y2="136.46446609407" style="stroke:#cb0;stroke-width:2;"/>
   <line x1="580" y1="80" x2="570" y2="80" style="stroke:#333;stroke-width:1;"/>
   <line x1="570" y1="330" x2="580" y2="330" style="stroke:#333;stroke-width:1;"/>
   <line x1="570" y1="80" x2="570" y2="330" style="stroke:#333;stroke-width:1;"/>
   <line x1="572.5" y1="80" x2="576.03553390593" y2="83.535533905933" style="stroke:#333;stroke-width:2;"/>
   <line x1="572.5" y1="80" x2="576.03553390593" y2="76.464466094067" style="stroke:#333;stroke-width:2;"/>
   <line x1="575" y1="330" x2="571.46446609407" y2="333.53553390593" style="stroke:#333;stroke-width:2;"/>
   <line x1="575" y1="330" x2="571.46446609407" y2="326.46446609407" style="stroke:#333;stroke-width:2;"/>
   <line x1="675" y1="520" x2="685" y2="520" style="stroke:#0b0;stroke-width:1;"/>
   <line x1="678" y1="60" x2="668" y2="60" style="stroke:#0b0;stroke-width:1;"/>
   <line x1="685" y1="520" x2="678" y2="60" style="stroke:#0b0;stroke-width:1;"/>
   <line x1="682.5" y1="520" x2="678.96446609407" y2="523.53553390593" style="stroke:#0b0;stroke-width:2;"/>
   <line x1="682.5" y1="520" x2="678.96446609407" y2="516.46446609407" style="stroke:#0b0;stroke-width:2;"/>
   <line x1="673" y1="60" x2="676.53553390593" y2="63.535533905933" style="stroke:#0b0;stroke-width:2;"/>
   <line x1="673" y1="60" x2="676.53553390593" y2="56.464466094067" style="stroke:#0b0;stroke-width:2;"/>
   <line x1="402" y1="50" x2="412" y2="50" style="stroke:#c00;stroke-width:1;"/>
   <line x1="570" y1="60" x2="580" y2="60" style="stroke:#c00;stroke-width:1;"/>
   <line x1="412" y1="50" x2="570" y2="60" style="stroke:#c00;stroke-width:1;"/>
   <line x1="409.5" y1="50" x2="405.96446609407" y2="53.535533905933" style="stroke:#c00;stroke-width:2;"/>
   <line x1="409.5" y1="50" x2="405.96446609407" y2="46.464466094067" style="stroke:#c00;stroke-width:2;"/>
   <line x1="575" y1="60" x2="571.46446609407" y2="63.535533905933" style="stroke:#c00;stroke-width:2;"/>
   <line x1="575" y1="60" x2="571.46446609407" y2="56.464466094067" style="stroke:#c00;stroke-width:2;"/>
   <line x1="300" y1="70" x2="290" y2="70" style="stroke:#bbb;stroke-width:1;"/>
   <line x1="137" y1="40" x2="127" y2="40" style="stroke:#bbb;stroke-width:1;"/>
   <line x1="290" y1="70" x2="137" y2="40" style="stroke:#bbb;stroke-width:1;"/>
   <line x1="292.5" y1="70" x2="296.03553390593" y2="73.535533905933" style="stroke:#bbb;stroke-width:2;"/>
   <line x1="292.5" y1="70" x2="296.03553390593" y2="66.464466094067" style="stroke:#bbb;stroke-width:2;"/>
   <line x1="132" y1="40" x2="135.53553390593" y2="43.535533905933" style="stroke:#bbb;stroke-width:2;"/>
   <line x1="132" y1="40" x2="135.53553390593" y2="36.464466094067" style="stroke:#bbb;stroke-width:2;"/>
   <rect width="68" height="20" x="580" y="300" style="fill:#007;stroke:black;"/>
   <text width="68" height="20" x="585" y="314" style="fill:#fff;" font-family="Arial" font-size="16px"> category</text>
   <rect width="68" height="20" x="580" y="320" style="fill:#aea;stroke:black;"/>
   <text width="68" height="20" x="585" y="334" style="fill:black;" font-family="Arial" font-size="16px">id</text>
   <rect width="68" height="20" x="580" y="340" style="fill:none;stroke:black;"/>
   <text width="68" height="20" x="585" y="354" style="fill:black;" font-family="Arial" font-size="16px">title</text>
   <rect width="68" height="20" x="580" y="360" style="fill:none;stroke:black;"/>
   <text width="68" height="20" x="585" y="374" style="fill:black;" font-family="Arial" font-size="16px">image</text>
   <rect width="68" height="20" x="580" y="380" style="fill:none;stroke:black;"/>
   <text width="68" height="20" x="585" y="394" style="fill:black;" font-family="Arial" font-size="16px">added</text>
   <rect width="68" height="20" x="580" y="400" style="fill:none;stroke:black;"/>
   <text width="68" height="20" x="585" y="414" style="fill:black;" font-family="Arial" font-size="16px">edited</text>
   <rect width="173" height="20" x="250" y="110" style="fill:#007;stroke:black;"/>
   <text width="173" height="20" x="255" y="124" style="fill:#fff;" font-family="Arial" font-size="16px"> customer</text>
   <rect width="173" height="20" x="250" y="130" style="fill:#aea;stroke:black;"/>
   <text width="173" height="20" x="255" y="144" style="fill:black;" font-family="Arial" font-size="16px">id</text>
   <rect width="173" height="20" x="250" y="150" style="fill:none;stroke:black;"/>
   <text width="173" height="20" x="255" y="164" style="fill:black;" font-family="Arial" font-size="16px">favorite</text>
   <rect width="173" height="20" x="250" y="170" style="fill:none;stroke:black;"/>
   <text width="173" height="20" x="255" y="184" style="fill:black;" font-family="Arial" font-size="16px">username</text>
   <rect width="173" height="20" x="250" y="190" style="fill:none;stroke:black;"/>
   <text width="173" height="20" x="255" y="204" style="fill:black;" font-family="Arial" font-size="16px">username_canonical</text>
   <rect width="173" height="20" x="250" y="210" style="fill:none;stroke:black;"/>
   <text width="173" height="20" x="255" y="224" style="fill:black;" font-family="Arial" font-size="16px">email</text>
   <rect width="173" height="20" x="250" y="230" style="fill:none;stroke:black;"/>
   <text width="173" height="20" x="255" y="244" style="fill:black;" font-family="Arial" font-size="16px">email_canonical</text>
   <rect width="173" height="20" x="250" y="250" style="fill:none;stroke:black;"/>
   <text width="173" height="20" x="255" y="264" style="fill:black;" font-family="Arial" font-size="16px">enabled</text>
   <rect width="173" height="20" x="250" y="270" style="fill:none;stroke:black;"/>
   <text width="173" height="20" x="255" y="284" style="fill:black;" font-family="Arial" font-size="16px">salt</text>
   <rect width="173" height="20" x="250" y="290" style="fill:none;stroke:black;"/>
   <text width="173" height="20" x="255" y="304" style="fill:black;" font-family="Arial" font-size="16px">password</text>
   <rect width="173" height="20" x="250" y="310" style="fill:none;stroke:black;"/>
   <text width="173" height="20" x="255" y="324" style="fill:black;" font-family="Arial" font-size="16px">last_login</text>
   <rect width="173" height="20" x="250" y="330" style="fill:none;stroke:black;"/>
   <text width="173" height="20" x="255" y="344" style="fill:black;" font-family="Arial" font-size="16px">locked</text>
   <rect width="173" height="20" x="250" y="350" style="fill:none;stroke:black;"/>
   <text width="173" height="20" x="255" y="364" style="fill:black;" font-family="Arial" font-size="16px">expired</text>
   <rect width="173" height="20" x="250" y="370" style="fill:none;stroke:black;"/>
   <text width="173" height="20" x="255" y="384" style="fill:black;" font-family="Arial" font-size="16px">expires_at</text>
   <rect width="173" height="20" x="250" y="390" style="fill:none;stroke:black;"/>
   <text width="173" height="20" x="255" y="404" style="fill:black;" font-family="Arial" font-size="16px">confirmation_token</text>
   <rect width="173" height="20" x="250" y="410" style="fill:none;stroke:black;"/>
   <text width="173" height="20" x="255" y="424" style="fill:black;" font-family="Arial" font-size="16px">password_requested_at</text>
   <rect width="173" height="20" x="250" y="430" style="fill:none;stroke:black;"/>
   <text width="173" height="20" x="255" y="444" style="fill:black;" font-family="Arial" font-size="16px">roles</text>
   <rect width="173" height="20" x="250" y="450" style="fill:none;stroke:black;"/>
   <text width="173" height="20" x="255" y="464" style="fill:black;" font-family="Arial" font-size="16px">credentials_expired</text>
   <rect width="173" height="20" x="250" y="470" style="fill:none;stroke:black;"/>
   <text width="173" height="20" x="255" y="484" style="fill:black;" font-family="Arial" font-size="16px">credentials_expire_at</text>
   <rect width="173" height="20" x="250" y="490" style="fill:none;stroke:black;"/>
   <text width="173" height="20" x="255" y="504" style="fill:black;" font-family="Arial" font-size="16px">fullname</text>
   <rect width="87" height="20" x="40" y="10" style="fill:#007;stroke:black;"/>
   <text width="87" height="20" x="45" y="24" style="fill:#fff;" font-family="Arial" font-size="16px"> order</text>
   <rect width="87" height="20" x="40" y="30" style="fill:#aea;stroke:black;"/>
   <text width="87" height="20" x="45" y="44" style="fill:black;" font-family="Arial" font-size="16px">id</text>
   <rect width="87" height="20" x="40" y="50" style="fill:none;stroke:black;"/>
   <text width="87" height="20" x="45" y="64" style="fill:black;" font-family="Arial" font-size="16px">customer</text>
   <rect width="87" height="20" x="40" y="70" style="fill:none;stroke:black;"/>
   <text width="87" height="20" x="45" y="84" style="fill:black;" font-family="Arial" font-size="16px">order_code</text>
   <rect width="87" height="20" x="40" y="90" style="fill:none;stroke:black;"/>
   <text width="87" height="20" x="45" y="104" style="fill:black;" font-family="Arial" font-size="16px">shipping</text>
   <rect width="87" height="20" x="40" y="110" style="fill:none;stroke:black;"/>
   <text width="87" height="20" x="45" y="124" style="fill:black;" font-family="Arial" font-size="16px">quantity</text>
   <rect width="87" height="20" x="40" y="130" style="fill:none;stroke:black;"/>
   <text width="87" height="20" x="45" y="144" style="fill:black;" font-family="Arial" font-size="16px">sold</text>
   <rect width="87" height="20" x="40" y="150" style="fill:none;stroke:black;"/>
   <text width="87" height="20" x="45" y="164" style="fill:black;" font-family="Arial" font-size="16px">created</text>
   <rect width="87" height="20" x="40" y="170" style="fill:none;stroke:black;"/>
   <text width="87" height="20" x="45" y="184" style="fill:black;" font-family="Arial" font-size="16px">edited</text>
   <rect width="88" height="20" x="580" y="30" style="fill:#007;stroke:black;"/>
   <text width="88" height="20" x="585" y="44" style="fill:#fff;" font-family="Arial" font-size="16px"> product</text>
   <rect width="88" height="20" x="580" y="50" style="fill:#aea;stroke:black;"/>
   <text width="88" height="20" x="585" y="64" style="fill:black;" font-family="Arial" font-size="16px">id</text>
   <rect width="88" height="20" x="580" y="70" style="fill:none;stroke:black;"/>
   <text width="88" height="20" x="585" y="84" style="fill:black;" font-family="Arial" font-size="16px">сategory</text>
   <rect width="88" height="20" x="580" y="90" style="fill:none;stroke:black;"/>
   <text width="88" height="20" x="585" y="104" style="fill:black;" font-family="Arial" font-size="16px">title</text>
   <rect width="88" height="20" x="580" y="110" style="fill:none;stroke:black;"/>
   <text width="88" height="20" x="585" y="124" style="fill:black;" font-family="Arial" font-size="16px">price</text>
   <rect width="88" height="20" x="580" y="130" style="fill:none;stroke:black;"/>
   <text width="88" height="20" x="585" y="144" style="fill:black;" font-family="Arial" font-size="16px">description</text>
   <rect width="88" height="20" x="580" y="150" style="fill:none;stroke:black;"/>
   <text width="88" height="20" x="585" y="164" style="fill:black;" font-family="Arial" font-size="16px">available</text>
   <rect width="88" height="20" x="580" y="170" style="fill:none;stroke:black;"/>
   <text width="88" height="20" x="585" y="184" style="fill:black;" font-family="Arial" font-size="16px">added</text>
   <rect width="88" height="20" x="580" y="190" style="fill:none;stroke:black;"/>
   <text width="88" height="20" x="585" y="204" style="fill:black;" font-family="Arial" font-size="16px">viewed</text>
   <rect width="88" height="20" x="580" y="210" style="fill:none;stroke:black;"/>
   <text width="88" height="20" x="585" y="224" style="fill:black;" font-family="Arial" font-size="16px">lastViewed</text>
   <rect width="115" height="20" x="560" y="470" style="fill:#007;stroke:black;"/>
   <text width="115" height="20" x="565" y="484" style="fill:#fff;" font-family="Arial" font-size="16px"> productimages</text>
   <rect width="115" height="20" x="560" y="490" style="fill:#aea;stroke:black;"/>
   <text width="115" height="20" x="565" y="504" style="fill:black;" font-family="Arial" font-size="16px">id</text>
   <rect width="115" height="20" x="560" y="510" style="fill:none;stroke:black;"/>
   <text width="115" height="20" x="565" y="524" style="fill:black;" font-family="Arial" font-size="16px">product</text>
   <rect width="115" height="20" x="560" y="530" style="fill:none;stroke:black;"/>
   <text width="115" height="20" x="565" y="544" style="fill:black;" font-family="Arial" font-size="16px">imagename</text>
   <rect width="102" height="20" x="300" y="20" style="fill:#007;stroke:black;"/>
   <text width="102" height="20" x="305" y="34" style="fill:#fff;" font-family="Arial" font-size="16px"> product_order</text>
   <rect width="102" height="20" x="300" y="40" style="fill:#aea;stroke:black;"/>
   <text width="102" height="20" x="305" y="54" style="fill:black;" font-family="Arial" font-size="16px">product_id</text>
   <rect width="102" height="20" x="300" y="60" style="fill:#aea;stroke:black;"/>
   <text width="102" height="20" x="305" y="74" style="fill:black;" font-family="Arial" font-size="16px">order_id</text>
</svg>